<svg width="187" height="33" viewBox="0 0 187 33" fill="none" xmlns="http://www.w3.org/2000/svg">
<path d="M5 13.8728C5 6.21108 11.2701 0 18.9319 0V0C27.7684 0 35 7.16344 35 16V16C35 24.8366 27.8366 32 19 32H5L5 13.8728Z" fill="#4B2EFF"/>
<path d="M17 9C17 7.89543 17.8954 7 19 7H22C23.1046 7 24 7.89543 24 9V9C24 10.1046 23.1046 11 22 11H19C17.8954 11 17 10.1046 17 9V9Z" fill="white"/>
<path d="M14 23C14 21.8954 14.8954 21 16 21H22C23.1046 21 24 21.8954 24 23V23C24 24.1046 23.1046 25 22 25H16C14.8954 25 14 24.1046 14 23V23Z" fill="#F5B800"/>
<path d="M14 16C14 14.8954 14.8954 14 16 14H27C28.1046 14 29 14.8954 29 16V16C29 17.1046 28.1046 18 27 18H16C14.8954 18 14 17.1046 14 16V16Z" fill="white"/>
<path d="M0 7H12C13.1046 7 14 7.89543 14 9V9C14 10.1046 13.1046 11 12 11H0L0 7Z" fill="#00D689"/>
<path d="M5 14H9C10.1046 14 11 14.8954 11 16V16C11 17.1046 10.1046 18 9 18H5V14Z" fill="white"/>
<path d="M0 21H9C10.1046 21 11 21.8954 11 23V23C11 24.1046 10.1046 25 9 25H0L0 21Z" fill="white"/>
<path d="M59.8741 25.3402C58.4688 25.3402 57.2108 24.9889 56.1001 24.2862C55.0121 23.5835 54.1508 22.5749 53.5161 21.2602C52.9041 19.9455 52.5981 18.3702 52.5981 16.5342C52.5981 14.6529 52.9268 13.0549 53.5841 11.7402C54.2415 10.4029 55.1255 9.3942 56.2361 8.7142C57.3695 8.01153 58.6388 7.6602 60.0441 7.6602C61.5401 7.6602 62.7755 8.09087 63.7501 8.9522C64.7248 9.81353 65.3595 10.9242 65.6541 12.2842L65.2121 12.8282V0.554199H69.8701V25.0002H65.6881L65.3821 19.8322L65.9601 20.1042C65.8015 21.1695 65.4388 22.0989 64.8721 22.8922C64.3055 23.6629 63.5915 24.2635 62.7301 24.6942C61.8688 25.1249 60.9168 25.3402 59.8741 25.3402ZM61.2341 21.7702C62.0501 21.7702 62.7528 21.5662 63.3421 21.1582C63.9315 20.7275 64.3848 20.1042 64.7021 19.2882C65.0421 18.4722 65.2121 17.4975 65.2121 16.3642C65.2121 15.2762 65.0535 14.3582 64.7361 13.6102C64.4188 12.8395 63.9655 12.2502 63.3761 11.8422C62.7868 11.4342 62.0955 11.2302 61.3021 11.2302C60.0328 11.2302 59.0355 11.6835 58.3101 12.5902C57.6075 13.4742 57.2561 14.7775 57.2561 16.5002C57.2561 18.2229 57.6075 19.5375 58.3101 20.4442C59.0128 21.3282 59.9875 21.7702 61.2341 21.7702Z" fill="white"/>
<path d="M75.7506 5.5522C74.7759 5.5522 74.0506 5.3482 73.5746 4.9402C73.0986 4.50953 72.8605 3.8862 72.8605 3.0702C72.8605 2.23153 73.0986 1.6082 73.5746 1.2002C74.0506 0.769533 74.7759 0.554199 75.7506 0.554199C76.7252 0.554199 77.4506 0.769533 77.9266 1.2002C78.4026 1.6082 78.6406 2.23153 78.6406 3.0702C78.6406 3.8862 78.4026 4.50953 77.9266 4.9402C77.4506 5.3482 76.7252 5.5522 75.7506 5.5522ZM78.0626 8.0002V26.2582C78.0626 27.7315 77.7906 28.9102 77.2466 29.7942C76.7252 30.6782 76.0112 31.3129 75.1046 31.6982C74.1979 32.1062 73.1666 32.3102 72.0106 32.3102C71.1719 32.3102 70.4125 32.2082 69.7325 32.0042C69.0525 31.8229 68.4632 31.5622 67.9646 31.2222L68.6786 27.8902C68.9506 28.1169 69.2906 28.3095 69.6986 28.4682C70.1066 28.6269 70.5599 28.7062 71.0585 28.7062C71.7612 28.7062 72.3279 28.4909 72.7586 28.0602C73.1892 27.6295 73.4046 26.8815 73.4046 25.8162V8.0002H78.0626Z" fill="white"/>
<path d="M81.6403 25.0002V0.554199H86.2983V10.8902C86.8423 9.8022 87.5903 8.99753 88.5423 8.4762C89.4943 7.9322 90.5709 7.6602 91.7723 7.6602C92.9509 7.6602 93.9936 7.88687 94.9003 8.3402C95.8296 8.79353 96.5549 9.48486 97.0763 10.4142C97.6203 11.3209 97.8923 12.4655 97.8923 13.8482V25.0002H93.2343V15.2082C93.2343 13.7349 92.9509 12.7262 92.3843 12.1822C91.8176 11.6155 91.0923 11.3322 90.2083 11.3322C89.5509 11.3322 88.9163 11.4909 88.3043 11.8082C87.7149 12.1029 87.2276 12.6015 86.8423 13.3042C86.4796 13.9842 86.2983 14.8909 86.2983 16.0242V25.0002H81.6403Z" fill="white"/>
<path d="M101.331 25.0002V8.0002H105.377L105.683 11.3322C106.136 10.1535 106.794 9.24687 107.655 8.6122C108.539 7.97753 109.638 7.6602 110.953 7.6602C111.338 7.6602 111.69 7.6942 112.007 7.7622C112.324 7.8302 112.585 7.92087 112.789 8.0342L112.245 11.9442C112.018 11.8535 111.735 11.7855 111.395 11.7402C111.078 11.6949 110.658 11.6722 110.137 11.6722C109.457 11.6722 108.8 11.8422 108.165 12.1822C107.53 12.4995 107.009 12.9982 106.601 13.6782C106.193 14.3355 105.989 15.1742 105.989 16.1942V25.0002H101.331Z" fill="white"/>
<path d="M121.701 7.6602C123.219 7.6602 124.5 7.88687 125.543 8.3402C126.608 8.77087 127.458 9.37153 128.093 10.1422C128.75 10.8902 129.215 11.7289 129.487 12.6582L125.135 14.2222C124.908 13.2022 124.523 12.4315 123.979 11.9102C123.435 11.3889 122.698 11.1282 121.769 11.1282C120.907 11.1282 120.171 11.3322 119.559 11.7402C118.947 12.1255 118.482 12.7262 118.165 13.5422C117.847 14.3355 117.689 15.3329 117.689 16.5342C117.689 17.7355 117.847 18.7329 118.165 19.5262C118.505 20.3195 118.981 20.9089 119.593 21.2942C120.227 21.6795 120.964 21.8722 121.803 21.8722C122.483 21.8722 123.061 21.7589 123.537 21.5322C124.013 21.2829 124.398 20.9315 124.693 20.4782C125.01 20.0249 125.225 19.4809 125.339 18.8462L129.555 20.2062C129.305 21.2262 128.841 22.1215 128.161 22.8922C127.481 23.6629 126.608 24.2635 125.543 24.6942C124.477 25.1249 123.242 25.3402 121.837 25.3402C120.091 25.3402 118.55 24.9889 117.213 24.2862C115.875 23.5835 114.844 22.5749 114.119 21.2602C113.393 19.9455 113.031 18.3589 113.031 16.5002C113.031 14.6415 113.393 13.0549 114.119 11.7402C114.844 10.4255 115.864 9.41687 117.179 8.7142C118.493 8.01153 120.001 7.6602 121.701 7.6602Z" fill="white"/>
<path d="M139.566 7.6602C141.289 7.6602 142.796 8.01153 144.088 8.7142C145.403 9.41687 146.423 10.4255 147.148 11.7402C147.896 13.0549 148.27 14.6415 148.27 16.5002C148.27 18.3362 147.896 19.9229 147.148 21.2602C146.423 22.5749 145.403 23.5835 144.088 24.2862C142.796 24.9889 141.289 25.3402 139.566 25.3402C137.866 25.3402 136.359 24.9889 135.044 24.2862C133.729 23.5835 132.698 22.5749 131.95 21.2602C131.225 19.9229 130.862 18.3362 130.862 16.5002C130.862 14.6415 131.225 13.0549 131.95 11.7402C132.698 10.4255 133.729 9.41687 135.044 8.7142C136.359 8.01153 137.866 7.6602 139.566 7.6602ZM139.566 11.1282C138.705 11.1282 137.968 11.3322 137.356 11.7402C136.767 12.1255 136.313 12.7149 135.996 13.5082C135.679 14.3015 135.52 15.2989 135.52 16.5002C135.52 17.7015 135.679 18.6989 135.996 19.4922C136.313 20.2855 136.767 20.8862 137.356 21.2942C137.968 21.6795 138.705 21.8722 139.566 21.8722C140.405 21.8722 141.119 21.6795 141.708 21.2942C142.32 20.8862 142.785 20.2855 143.102 19.4922C143.419 18.6989 143.578 17.7015 143.578 16.5002C143.578 15.2989 143.419 14.3015 143.102 13.5082C142.785 12.7149 142.32 12.1255 141.708 11.7402C141.119 11.3322 140.405 11.1282 139.566 11.1282Z" fill="white"/>
<path d="M157.234 25.3402C155.828 25.3402 154.57 24.9889 153.46 24.2862C152.372 23.5835 151.51 22.5749 150.876 21.2602C150.264 19.9455 149.958 18.3702 149.958 16.5342C149.958 14.6529 150.286 13.0549 150.944 11.7402C151.601 10.4029 152.485 9.3942 153.596 8.7142C154.729 8.01153 155.998 7.6602 157.404 7.6602C158.9 7.6602 160.135 8.09087 161.11 8.9522C162.084 9.81353 162.719 10.9242 163.014 12.2842L162.572 12.8282V0.554199H167.23V25.0002H163.048L162.742 19.8322L163.32 20.1042C163.161 21.1695 162.798 22.0989 162.232 22.8922C161.665 23.6629 160.951 24.2635 160.09 24.6942C159.228 25.1249 158.276 25.3402 157.234 25.3402ZM158.594 21.7702C159.41 21.7702 160.112 21.5662 160.702 21.1582C161.291 20.7275 161.744 20.1042 162.062 19.2882C162.402 18.4722 162.572 17.4975 162.572 16.3642C162.572 15.2762 162.413 14.3582 162.096 13.6102C161.778 12.8395 161.325 12.2502 160.736 11.8422C160.146 11.4342 159.455 11.2302 158.662 11.2302C157.392 11.2302 156.395 11.6835 155.67 12.5902C154.967 13.4742 154.616 14.7775 154.616 16.5002C154.616 18.2229 154.967 19.5375 155.67 20.4442C156.372 21.3282 157.347 21.7702 158.594 21.7702Z" fill="white"/>
<path d="M178.652 25.3402C176.861 25.3402 175.297 24.9889 173.96 24.2862C172.645 23.5835 171.625 22.5749 170.9 21.2602C170.175 19.9455 169.812 18.3589 169.812 16.5002C169.812 14.6415 170.175 13.0549 170.9 11.7402C171.625 10.4255 172.634 9.41687 173.926 8.7142C175.241 8.01153 176.737 7.6602 178.414 7.6602C180.137 7.6602 181.599 8.01153 182.8 8.7142C184.001 9.3942 184.919 10.3349 185.554 11.5362C186.189 12.7149 186.506 14.0635 186.506 15.5822C186.506 16.0355 186.495 16.4662 186.472 16.8742C186.449 17.2822 186.415 17.6449 186.37 17.9622H172.804V14.7322H184.33L182.086 15.5482C182.086 14.1202 181.757 13.0209 181.1 12.2502C180.465 11.4795 179.559 11.0942 178.38 11.0942C177.519 11.0942 176.771 11.2982 176.136 11.7062C175.524 12.1142 175.059 12.7262 174.742 13.5422C174.425 14.3355 174.266 15.3442 174.266 16.5682C174.266 17.7695 174.436 18.7669 174.776 19.5602C175.139 20.3309 175.637 20.9089 176.272 21.2942C176.929 21.6795 177.711 21.8722 178.618 21.8722C179.615 21.8722 180.42 21.6795 181.032 21.2942C181.644 20.9089 182.12 20.3762 182.46 19.6962L186.166 21.1242C185.803 22.0082 185.248 22.7675 184.5 23.4022C183.775 24.0369 182.902 24.5242 181.882 24.8642C180.885 25.1815 179.808 25.3402 178.652 25.3402Z" fill="white"/>
</svg>
