<svg width="230" height="30" viewBox="0 0 230 30" fill="none" xmlns="http://www.w3.org/2000/svg">
<path d="M18.7093 20.8019L0 29.2758V23.7404L12.8095 18.4511L12.6367 18.7381V18.0548L12.8095 18.3418L0 13.0525V7.51712L18.7093 15.991V20.8019Z" fill="#EBEBEB"/>
<path d="M37.5178 29.9318C35.9676 29.9318 34.5635 29.5218 33.3056 28.7017C32.0565 27.8726 31.0644 26.6562 30.3291 25.0525C29.6027 23.4397 29.2395 21.4625 29.2395 19.1208C29.2395 16.7153 29.616 14.7153 30.369 13.1208C31.1219 11.5171 32.123 10.319 33.372 9.52624C34.6299 8.72442 36.0074 8.3235 37.5045 8.3235C38.6473 8.3235 39.5996 8.52396 40.3614 8.92487C41.1321 9.31667 41.7522 9.8087 42.2217 10.401C42.7001 10.9841 43.0633 11.5581 43.3113 12.1231H43.4841V1.5991H49.1314V29.5901H43.5505V26.2279H43.3113C43.0456 26.8111 42.6691 27.3897 42.1818 27.9637C41.7035 28.5286 41.079 28.9979 40.3083 29.3714C39.5464 29.745 38.6163 29.9318 37.5178 29.9318ZM39.3117 25.2985C40.2241 25.2985 40.9948 25.0434 41.6238 24.5331C42.2616 24.0138 42.7488 23.2894 43.0854 22.36C43.4309 21.4306 43.6036 20.3418 43.6036 19.0935C43.6036 17.8452 43.4353 16.7609 43.0987 15.8406C42.7621 14.9203 42.2749 14.2096 41.637 13.7085C40.9992 13.2074 40.2241 12.9568 39.3117 12.9568C38.3815 12.9568 37.5975 13.2165 36.9597 13.7358C36.3219 14.2552 35.8391 14.975 35.5114 15.8953C35.1836 16.8156 35.0197 17.8816 35.0197 19.0935C35.0197 20.3144 35.1836 21.3942 35.5114 22.3327C35.848 23.2621 36.3308 23.991 36.9597 24.5195C37.5975 25.0388 38.3815 25.2985 39.3117 25.2985Z" fill="#EBEBEB"/>
<path d="M58.1088 29.9865C56.8066 29.9865 55.6461 29.7541 54.6274 29.2894C53.6086 28.8156 52.8025 28.1186 52.209 27.1983C51.6243 26.2689 51.332 25.1117 51.332 23.7268C51.332 22.5605 51.5402 21.581 51.9565 20.7883C52.3729 19.9955 52.9398 19.3577 53.6574 18.8748C54.3749 18.3919 55.1899 18.0274 56.1023 17.7814C57.0236 17.5354 57.9892 17.3623 58.9991 17.262C60.1861 17.1345 61.1428 17.016 61.8692 16.9067C62.5957 16.7882 63.1227 16.6151 63.4505 16.3873C63.7783 16.1595 63.9422 15.8224 63.9422 15.3759V15.2939C63.9422 14.4283 63.6764 13.7586 63.1449 13.2848C62.6222 12.811 61.8781 12.5741 60.9125 12.5741C59.8938 12.5741 59.0832 12.8064 58.4809 13.2711C57.8785 13.7267 57.4798 14.3008 57.2849 14.9932L52.0495 14.5559C52.3153 13.2802 52.8379 12.1777 53.6175 11.2483C54.3971 10.3098 55.4025 9.59002 56.6338 9.08888C57.874 8.57863 59.3091 8.3235 60.9391 8.3235C62.073 8.3235 63.1582 8.46018 64.1946 8.73353C65.2399 9.00688 66.1656 9.43057 66.9718 10.0046C67.7868 10.5786 68.429 11.3167 68.8985 12.2187C69.368 13.1117 69.6028 14.1823 69.6028 15.4306V29.5901H64.2345V26.6789H64.075C63.7473 27.335 63.3088 27.9136 62.7595 28.4147C62.2103 28.9067 61.5503 29.294 60.7796 29.5765C60.0089 29.8498 59.1187 29.9865 58.1088 29.9865ZM59.7299 25.9682C60.5626 25.9682 61.2979 25.7997 61.9357 25.4625C62.5735 25.1163 63.074 24.6516 63.4372 24.0685C63.8004 23.4853 63.982 22.8247 63.982 22.0867V19.8589C63.8048 19.9773 63.5612 20.0867 63.2512 20.1869C62.95 20.278 62.6089 20.3646 62.228 20.4466C61.8471 20.5195 61.4662 20.5878 61.0853 20.6516C60.7043 20.7063 60.3589 20.7564 60.0488 20.8019C59.3844 20.9022 58.8042 21.0616 58.3081 21.2803C57.812 21.499 57.4267 21.7951 57.1521 22.1687C56.8775 22.5331 56.7401 22.9887 56.7401 23.5354C56.7401 24.3281 57.0192 24.9341 57.5773 25.3532C58.1442 25.7632 58.8618 25.9682 59.7299 25.9682Z" fill="#EBEBEB"/>
<path d="M78.1583 17.4534V29.5901H72.4977V8.59685H77.8925V12.3007H78.1317C78.5835 11.0798 79.3409 10.1139 80.4039 9.40323C81.467 8.68341 82.7559 8.3235 84.2707 8.3235C85.688 8.3235 86.9238 8.64241 87.978 9.28023C89.0322 9.91804 89.8516 10.8292 90.4362 12.0137C91.0209 13.1891 91.3132 14.5923 91.3132 16.2233V29.5901H85.6526V17.262C85.6615 15.9773 85.3426 14.975 84.6959 14.2552C84.0492 13.5263 83.1589 13.1618 82.025 13.1618C81.2632 13.1618 80.59 13.3304 80.0053 13.6675C79.4295 14.0046 78.9777 14.4967 78.6499 15.1436C78.331 15.7814 78.1671 16.5513 78.1583 17.4534Z" fill="#EBEBEB"/>
<path d="M94.2779 29.5901V8.59685H99.9385V29.5901H94.2779ZM97.1215 5.89069C96.2799 5.89069 95.5579 5.60367 94.9556 5.02964C94.362 4.44649 94.0653 3.74945 94.0653 2.93851C94.0653 2.13668 94.362 1.44875 94.9556 0.874721C95.5579 0.291574 96.2799 0 97.1215 0C97.9631 0 98.6806 0.291574 99.2741 0.874721C99.8765 1.44875 100.178 2.13668 100.178 2.93851C100.178 3.74945 99.8765 4.44649 99.2741 5.02964C98.6806 5.60367 97.9631 5.89069 97.1215 5.89069Z" fill="#EBEBEB"/>
<path d="M141.763 29.9999C139.672 29.9999 137.874 29.5443 136.368 28.6332C134.871 27.7129 133.719 26.4373 132.913 24.8063C132.116 23.1753 131.717 21.2983 131.717 19.1753C131.717 17.0249 132.12 15.1388 132.926 13.5169C133.741 11.8859 134.898 10.6149 136.395 9.7037C137.892 8.78342 139.672 8.32328 141.736 8.32328C143.517 8.32328 145.076 8.65586 146.414 9.32101C147.751 9.98616 148.81 10.9201 149.589 12.1228C150.369 13.3256 150.799 14.7379 150.878 16.3598H145.537C145.386 15.3119 144.987 14.4691 144.341 13.8313C143.703 13.1844 142.866 12.8609 141.829 12.8609C140.952 12.8609 140.186 13.1069 139.531 13.5989C138.884 14.0819 138.379 14.788 138.016 15.7174C137.653 16.6468 137.471 17.7721 137.471 19.0933C137.471 20.4327 137.648 21.5716 138.002 22.5101C138.366 23.4486 138.875 24.1639 139.531 24.6559C140.186 25.148 140.952 25.394 141.829 25.394C142.476 25.394 143.056 25.2573 143.57 24.984C144.093 24.7106 144.522 24.3142 144.859 23.7949C145.204 23.2664 145.43 22.6331 145.537 21.8951H150.878C150.79 23.4988 150.365 24.9111 149.603 26.132C148.85 27.3439 147.809 28.2915 146.48 28.9749C145.151 29.6582 143.579 29.9999 141.763 29.9999Z" fill="#F5B800"/>
<path d="M162.228 29.9999C160.164 29.9999 158.379 29.5489 156.873 28.6468C155.376 27.7357 154.219 26.4692 153.404 24.8473C152.59 23.2163 152.182 21.3256 152.182 19.1753C152.182 17.0067 152.59 15.1115 153.404 13.4896C154.219 11.8586 155.376 10.5921 156.873 9.69003C158.379 8.77887 160.164 8.32328 162.228 8.32328C164.292 8.32328 166.072 8.77887 167.569 9.69003C169.075 10.5921 170.236 11.8586 171.051 13.4896C171.866 15.1115 172.273 17.0067 172.273 19.1753C172.273 21.3256 171.866 23.2163 171.051 24.8473C170.236 26.4692 169.075 27.7357 167.569 28.6468C166.072 29.5489 164.292 29.9999 162.228 29.9999ZM162.254 25.4897C163.193 25.4897 163.977 25.2163 164.606 24.6696C165.235 24.1138 165.709 23.3575 166.028 22.4008C166.356 21.4441 166.52 20.3552 166.52 19.1343C166.52 17.9133 166.356 16.8245 166.028 15.8677C165.709 14.911 165.235 14.1547 164.606 13.5989C163.977 13.0431 163.193 12.7652 162.254 12.7652C161.306 12.7652 160.509 13.0431 159.862 13.5989C159.225 14.1547 158.742 14.911 158.414 15.8677C158.095 16.8245 157.936 17.9133 157.936 19.1343C157.936 20.3552 158.095 21.4441 158.414 22.4008C158.742 23.3575 159.225 24.1138 159.862 24.6696C160.509 25.2163 161.306 25.4897 162.254 25.4897Z" fill="#F5B800"/>
<path d="M181.978 29.9316C180.428 29.9316 179.024 29.5216 177.766 28.7015C176.517 27.8723 175.525 26.6559 174.789 25.0523C174.063 23.4395 173.7 21.4623 173.7 19.1206C173.7 16.7151 174.076 14.7151 174.829 13.1206C175.582 11.5169 176.583 10.3187 177.832 9.52602C179.09 8.7242 180.468 8.32328 181.965 8.32328C183.108 8.32328 184.06 8.52374 184.822 8.92465C185.592 9.31645 186.213 9.80848 186.682 10.4007C187.16 10.9839 187.524 11.5579 187.772 12.1228H187.944V1.59888H193.592V29.5899H188.011V26.2277H187.772C187.506 26.8108 187.129 27.3894 186.642 27.9635C186.164 28.5284 185.539 28.9976 184.769 29.3712C184.007 29.7448 183.077 29.9316 181.978 29.9316ZM183.772 25.2983C184.684 25.2983 185.455 25.0432 186.084 24.5329C186.722 24.0136 187.209 23.2892 187.546 22.3598C187.891 21.4304 188.064 20.3416 188.064 19.0933C188.064 17.845 187.896 16.7607 187.559 15.8404C187.222 14.9201 186.735 14.2094 186.097 13.7083C185.46 13.2071 184.684 12.9566 183.772 12.9566C182.842 12.9566 182.058 13.2162 181.42 13.7356C180.782 14.255 180.299 14.9748 179.972 15.8951C179.644 16.8153 179.48 17.8814 179.48 19.0933C179.48 20.3142 179.644 21.394 179.972 22.3325C180.308 23.2619 180.791 23.9908 181.42 24.5193C182.058 25.0386 182.842 25.2983 183.772 25.2983Z" fill="#F5B800"/>
<path d="M206.051 29.9999C203.951 29.9999 202.144 29.5626 200.629 28.6878C199.123 27.804 197.963 26.5557 197.148 24.943C196.333 23.3211 195.925 21.4031 195.925 19.1889C195.925 17.0295 196.333 15.1343 197.148 13.5033C197.963 11.8723 199.11 10.6012 200.589 9.69003C202.077 8.77887 203.823 8.32328 205.825 8.32328C207.171 8.32328 208.425 8.54652 209.585 8.99299C210.754 9.43035 211.773 10.0909 212.641 10.9748C213.518 11.8586 214.2 12.9702 214.688 14.3096C215.175 15.6399 215.418 17.198 215.418 18.9839V20.583H198.184V16.9748H210.09C210.09 16.1365 209.913 15.3939 209.559 14.747C209.204 14.1001 208.713 13.5944 208.084 13.2299C207.463 12.8563 206.741 12.6695 205.918 12.6695C205.058 12.6695 204.297 12.8746 203.632 13.2846C202.977 13.6855 202.463 14.2276 202.091 14.911C201.719 15.5853 201.528 16.337 201.519 17.1662V20.5967C201.519 21.6354 201.705 22.5329 202.077 23.2892C202.458 24.0455 202.994 24.6286 203.685 25.0386C204.376 25.4487 205.196 25.6537 206.144 25.6537C206.772 25.6537 207.348 25.5625 207.871 25.3803C208.394 25.1981 208.841 24.9247 209.213 24.5603C209.585 24.1958 209.869 23.7493 210.063 23.2208L215.299 23.5762C215.033 24.8701 214.488 25.9999 213.664 26.9657C212.849 27.9225 211.795 28.6696 210.502 29.2072C209.217 29.7357 207.734 29.9999 206.051 29.9999Z" fill="#F5B800"/>
<path d="M217.616 29.5899V8.59663H223.104V12.2595H223.316C223.688 10.9566 224.313 9.97249 225.19 9.30734C226.067 8.63308 227.077 8.29595 228.219 8.29595C228.503 8.29595 228.809 8.31417 229.136 8.35062C229.464 8.38706 229.752 8.43718 230 8.50096V13.6673C229.734 13.5853 229.367 13.5124 228.897 13.4486C228.428 13.3848 227.998 13.3529 227.608 13.3529C226.775 13.3529 226.031 13.5397 225.376 13.9133C224.729 14.2778 224.215 14.788 223.834 15.444C223.462 16.1001 223.276 16.8564 223.276 17.7128V29.5899H217.616Z" fill="#F5B800"/>
<path d="M112.278 29.9999C110.178 29.9999 108.371 29.5626 106.856 28.6878C105.35 27.804 104.19 26.5557 103.375 24.943C102.56 23.3211 102.152 21.4031 102.152 19.1889C102.152 17.0295 102.56 15.1343 103.375 13.5033C104.19 11.8723 105.337 10.6012 106.816 9.69003C108.305 8.77887 110.05 8.32328 112.052 8.32328C113.398 8.32328 114.652 8.54652 115.812 8.99299C116.982 9.43035 118 10.0909 118.868 10.9748C119.745 11.8586 120.428 12.9702 120.915 14.3096C121.402 15.6399 121.646 17.198 121.646 18.9839V20.583H104.411V16.9748H116.317C116.317 16.1365 116.14 15.3939 115.786 14.747C115.431 14.1001 114.94 13.5944 114.311 13.2299C113.691 12.8563 112.969 12.6695 112.145 12.6695C111.286 12.6695 110.524 12.8746 109.859 13.2846C109.204 13.6855 108.69 14.2276 108.318 14.911C107.946 15.5853 107.755 16.337 107.747 17.1662V20.5967C107.747 21.6354 107.933 22.5329 108.305 23.2892C108.686 24.0455 109.221 24.6286 109.912 25.0386C110.603 25.4487 111.423 25.6537 112.371 25.6537C113 25.6537 113.575 25.5625 114.098 25.3803C114.621 25.1981 115.068 24.9247 115.44 24.5603C115.812 24.1958 116.096 23.7493 116.291 23.2208L121.526 23.5762C121.26 24.8701 120.715 25.9999 119.892 26.9657C119.077 27.9225 118.022 28.6696 116.729 29.2072C115.445 29.7357 113.961 29.9999 112.278 29.9999Z" fill="#00D689"/>
<path d="M129.504 1.59888V29.5899H123.843V1.59888H129.504Z" fill="#00D689"/>
</svg>
